<svg xmlns="http://www.w3.org/2000/svg" viewBox="0 0 298.04 297.97"><defs><style>.cls-1{fill:#9b59b6;}.cls-2{fill:#c6538c;}.cls-3{fill:#efc94c;}.cls-4{fill:#2c3e50;}.cls-5{fill:#45b29d;}</style></defs><title>skills-circle</title><g id="Layer_2" data-name="Layer 2"><g id="infographic"><g id="skills-bar"><path class="cls-1" d="M149.07,30h0V0A144,144,0,0,0,79.14,17.44L93.2,43.88A118.47,118.47,0,0,1,149.07,30Z"/><path class="cls-2" d="M30.07,149A119,119,0,0,1,93.2,43.88L79.14,17.44c-58.62,31.17-89,94.78-76.29,160l29.4-5.71A119.61,119.61,0,0,1,30.07,149Z"/><path class="cls-3" d="M32.24,171.67l-29.4,5.71C12.5,227.05,42.26,264.47,88.49,285l12.18-27.35A119.19,119.19,0,0,1,32.24,171.67Z"/><path class="cls-4" d="M149.07,268a118.57,118.57,0,0,1-48.41-10.27L88.49,285a149,149,0,0,0,196.67-75.5l-27.35-12.18A119,119,0,0,1,149.07,268Z"/><path class="cls-5" d="M149.07,0V30A119,119,0,0,1,257.81,197.37l27.35,12.18A140.71,140.71,0,0,0,298,149,149,149,0,0,0,149.07,0Z"/></g></g></g></svg>